<?xml version="1.0" encoding="utf-8"?>
<!-- Generator: Adobe Illustrator 15.0.2, SVG Export Plug-In . SVG Version: 6.00 Build 0)  -->
<!DOCTYPE svg PUBLIC "-//W3C//DTD SVG 1.1//EN" "http://www.w3.org/Graphics/SVG/1.1/DTD/svg11.dtd">
<svg version="1.1" id="Layer_1" xmlns="http://www.w3.org/2000/svg" xmlns:xlink="http://www.w3.org/1999/xlink" x="0px" y="0px"
	 width="75px" height="50px" viewBox="0 0 75 50" enable-background="new 0 0 75 50" xml:space="preserve">
<g>
	<path fill="#FFFFFF" stroke="#FFFFFF" stroke-width="0.469" stroke-miterlimit="10" d="M12.077,42.841
		c0,1.357-0.943,2.271-2.373,2.271c-1.17,0-1.989-0.622-2.269-1.72l0.799-0.394c0.217,0.901,0.725,1.367,1.471,1.367
		c0.892,0,1.482-0.569,1.482-1.378c0-0.664-0.384-1.149-1.151-1.481l-0.902-0.384c-0.985-0.414-1.46-1.057-1.46-1.959
		c0-1.036,0.849-1.824,2.083-1.824c0.891,0,1.555,0.384,1.917,1.119l-0.726,0.467c-0.321-0.56-0.725-0.852-1.254-0.852
		c-0.663,0-1.129,0.447-1.129,1.079c0,0.528,0.321,0.901,0.995,1.191l1.057,0.466C11.59,41.226,12.077,41.909,12.077,42.841z"/>
	<path fill="#FFFFFF" stroke="#FFFFFF" stroke-width="0.469" stroke-miterlimit="10" d="M15.14,37.515v4.611
		c0,1.481,0.601,2.176,1.979,2.176s1.979-0.694,1.979-2.176v-4.611h0.891v4.611c0,2-0.943,2.994-2.871,2.994
		s-2.871-0.994-2.871-2.994v-4.611H15.14z"/>
	<path fill="#FFFFFF" stroke="#FFFFFF" stroke-width="0.469" stroke-miterlimit="10" d="M23.632,44.924h-0.859v-7.409h1.305
		c0.083,0,0.166,0,0.25,0c0.756,0,1.367,0.021,1.865,0.374c0.465,0.332,0.755,0.943,0.755,1.668c0,0.726-0.29,1.336-0.755,1.669
		c-0.498,0.352-1.099,0.373-1.865,0.373c-0.083,0-0.166,0-0.25,0h-0.445L23.632,44.924L23.632,44.924z M24.078,40.8
		c1.274,0,1.917-0.166,1.917-1.193c0-1.076-0.632-1.283-1.917-1.283h-0.445V40.8H24.078z"/>
	<path fill="#FFFFFF" stroke="#FFFFFF" stroke-width="0.469" stroke-miterlimit="10" d="M29.069,37.515h3.906v0.809h-3.026v2.124
		h3.026v0.818h-3.026v2.839h3.026v0.819h-3.906V37.515z"/>
	<path fill="#FFFFFF" stroke="#FFFFFF" stroke-width="0.469" stroke-miterlimit="10" d="M35.5,37.515h1.513c0.083,0,0.156,0,0.228,0
		c0.705,0,1.243,0.021,1.698,0.374c0.427,0.332,0.694,0.92,0.694,1.646c0,1.213-0.694,1.855-1.999,1.855c-0.053,0-0.104,0-0.157,0
		l2.829,3.533h-1.119l-2.705-3.533h-0.124v3.533h-0.86L35.5,37.515L35.5,37.515z M36.361,40.738h0.673
		c1.161,0,1.73-0.166,1.73-1.192c0-1.077-0.56-1.285-1.73-1.285h-0.673V40.738z"/>
	<path fill="#FFFFFF" stroke="#FFFFFF" stroke-width="0.469" stroke-miterlimit="10" d="M47.318,39.889l-0.933,5.035h-0.862
		l1.503-7.699l2.593,6.124l2.589-6.124l1.503,7.699h-0.862l-0.941-5.035l-2.288,5.325L47.318,39.889z"/>
	<path fill="#FFFFFF" stroke="#FFFFFF" stroke-width="0.469" stroke-miterlimit="10" d="M61.592,44.924h-0.953l-0.965-2.27h-2.891
		l-0.963,2.27h-0.953l3.356-7.699L61.592,44.924z M57.041,41.898h2.364l-1.184-2.726L57.041,41.898z"/>
	<path fill="#FFFFFF" stroke="#FFFFFF" stroke-width="0.469" stroke-miterlimit="10" d="M64.249,44.924h-0.86v-7.409h1.307
		c0.083,0,0.166,0,0.25,0c0.756,0,1.366,0.021,1.865,0.374c0.464,0.332,0.754,0.943,0.754,1.668c0,0.726-0.29,1.336-0.754,1.669
		c-0.499,0.352-1.1,0.373-1.865,0.373c-0.084,0-0.167,0-0.25,0h-0.446V44.924z M64.695,40.8c1.275,0,1.918-0.166,1.918-1.193
		c0-1.076-0.634-1.283-1.918-1.283h-0.446V40.8H64.695z"/>
</g>
<path fill="#FFFFFF" d="M37.5,4.727c-5.11,0-9.254,4.144-9.254,9.254c0,5.888,6.245,10.442,9.254,17.666
	c3.01-7.225,9.255-11.776,9.255-17.666C46.754,8.871,42.61,4.727,37.5,4.727z M29.958,12.061h5.781L37.5,6.393l1.761,5.667h5.781
	l-4.653,3.134l2.48,5.428L37.5,17.245l-5.366,3.377l2.48-5.428L29.958,12.061z"/>
</svg>
