<?xml version="1.0" encoding="utf-8"?>
<!-- Generator: Adobe Illustrator 15.0.2, SVG Export Plug-In . SVG Version: 6.00 Build 0)  -->
<!DOCTYPE svg PUBLIC "-//W3C//DTD SVG 1.1//EN" "http://www.w3.org/Graphics/SVG/1.1/DTD/svg11.dtd">
<svg version="1.1" id="Layer_1" xmlns="http://www.w3.org/2000/svg" xmlns:xlink="http://www.w3.org/1999/xlink" x="0px" y="0px"
	 width="368.71px" height="53.283px" viewBox="0 0 368.71 53.283" enable-background="new 0 0 368.71 53.283" xml:space="preserve">
<g>
	
		<path fill="#FFFFFF" stroke="#FFFFFF" stroke-width="5" stroke-linecap="round" stroke-linejoin="round" stroke-miterlimit="10" d="
		M20.328,19.689h-6.75v-2.07c0-0.967-0.085-1.582-0.258-1.847c-0.172-0.265-0.46-0.397-0.864-0.397
		c-0.437,0-0.767,0.179-0.991,0.536c-0.225,0.355-0.338,0.898-0.338,1.622c0,0.933,0.128,1.635,0.379,2.107
		c0.241,0.473,0.926,1.043,2.054,1.709c3.234,1.918,5.271,3.495,6.111,4.726c0.839,1.231,1.26,3.216,1.26,5.954
		c0,1.99-0.233,3.459-0.7,4.4c-0.465,0.943-1.365,1.734-2.701,2.375c-1.335,0.639-2.889,0.957-4.659,0.957
		c-1.946,0-3.605-0.369-4.98-1.105c-1.374-0.736-2.275-1.672-2.7-2.812c-0.426-1.139-0.64-2.754-0.64-4.85v-1.828h6.749v3.398
		c0,1.047,0.096,1.719,0.285,2.02c0.188,0.299,0.525,0.449,1.009,0.449s0.844-0.189,1.08-0.57c0.234-0.381,0.353-0.943,0.353-1.691
		c0-1.645-0.224-2.72-0.674-3.227c-0.459-0.509-1.594-1.354-3.4-2.539c-1.805-1.195-3.003-2.064-3.589-2.605
		c-0.586-0.539-1.073-1.288-1.458-2.243c-0.385-0.954-0.578-2.176-0.578-3.659c0-2.14,0.273-3.705,0.82-4.695
		c0.545-0.989,1.43-1.764,2.648-2.322c1.219-0.556,2.692-0.836,4.418-0.836c1.887,0,3.495,0.305,4.825,0.915
		c1.328,0.61,2.209,1.378,2.641,2.304c0.43,0.927,0.646,2.5,0.646,4.721V19.689z"/>
	
		<path fill="#FFFFFF" stroke="#FFFFFF" stroke-width="5" stroke-linecap="round" stroke-linejoin="round" stroke-miterlimit="10" d="
		M36.654,11.231l4.155,27.943h-7.425l-0.39-5.021h-2.598l-0.438,5.021h-7.512l3.706-27.943H36.654z M32.803,29.2
		c-0.368-3.165-0.737-7.079-1.106-11.738c-0.74,5.351-1.206,9.263-1.396,11.738H32.803z"/>
	
		<path fill="#FFFFFF" stroke="#FFFFFF" stroke-width="5" stroke-linecap="round" stroke-linejoin="round" stroke-miterlimit="10" d="
		M59.151,11.231v27.943h-6.369l-3.779-12.703v12.703h-6.076V11.231h6.076l4.072,12.583V11.231H59.151z"/>
	
		<path fill="#FFFFFF" stroke="#FFFFFF" stroke-width="5" stroke-linecap="round" stroke-linejoin="round" stroke-miterlimit="10" d="
		M75.512,11.231l4.155,27.943h-7.427l-0.39-5.021h-2.598l-0.438,5.021h-7.512l3.707-27.943H75.512z M71.662,29.2
		c-0.368-3.165-0.738-7.079-1.108-11.738c-0.739,5.351-1.204,9.263-1.395,11.738H71.662z"/>
	
		<path fill="#FFFFFF" stroke="#FFFFFF" stroke-width="5" stroke-linecap="round" stroke-linejoin="round" stroke-miterlimit="10" d="
		M98.009,11.231v27.943h-6.369L87.86,26.471v12.703h-6.076V11.231h6.076l4.073,12.583V11.231H98.009z"/>
	
		<path fill="#FFFFFF" stroke="#FFFFFF" stroke-width="5" stroke-linecap="round" stroke-linejoin="round" stroke-miterlimit="10" d="
		M118.482,21.519h-7.266v-2.538c0-1.599-0.07-2.6-0.208-3.001c-0.136-0.405-0.465-0.605-0.983-0.605
		c-0.449,0-0.755,0.173-0.914,0.517c-0.163,0.345-0.242,1.232-0.242,2.658v13.41c0,1.256,0.079,2.082,0.242,2.479
		c0.159,0.396,0.483,0.596,0.966,0.596c0.528,0,0.889-0.225,1.078-0.674c0.189-0.447,0.285-1.322,0.285-2.623v-3.313h-1.467v-4.245
		h8.509v14.996h-4.566l-0.673-2.002c-0.494,0.863-1.12,1.512-1.874,1.941c-0.753,0.434-1.643,0.648-2.667,0.648
		c-1.221,0-2.364-0.297-3.428-0.889c-1.065-0.592-1.875-1.326-2.428-2.201s-0.898-1.791-1.036-2.754
		c-0.139-0.959-0.208-2.4-0.208-4.32v-8.304c0-2.668,0.144-4.607,0.431-5.817c0.288-1.207,1.113-2.315,2.477-3.322
		c1.363-1.007,3.126-1.51,5.289-1.51c2.129,0,3.896,0.438,5.299,1.312c1.404,0.874,2.319,1.913,2.744,3.115
		c0.426,1.202,0.639,2.948,0.639,5.237V21.519z"/>
	
		<path fill="#FFFFFF" stroke="#FFFFFF" stroke-width="5" stroke-linecap="round" stroke-linejoin="round" stroke-miterlimit="10" d="
		M122.18,11.231h12.115v5.593h-4.849v5.298h4.539v5.317h-4.539v6.144h5.332v5.592H122.18V11.231z"/>
	
		<path fill="#FFFFFF" stroke="#FFFFFF" stroke-width="5" stroke-linecap="round" stroke-linejoin="round" stroke-miterlimit="10" d="
		M145.018,11.231v22.351h4.417v5.592H137.75V11.231H145.018z"/>
	
		<path fill="#FFFFFF" stroke="#FFFFFF" stroke-width="5" stroke-linecap="round" stroke-linejoin="round" stroke-miterlimit="10" d="
		M168.147,27.594c0,2.809-0.066,4.795-0.198,5.963c-0.132,1.168-0.547,2.234-1.242,3.201c-0.696,0.967-1.637,1.709-2.823,2.227
		c-1.184,0.518-2.565,0.777-4.141,0.777c-1.496,0-2.841-0.242-4.031-0.734c-1.19-0.488-2.148-1.223-2.874-2.199
		c-0.724-0.979-1.156-2.043-1.294-3.193c-0.137-1.15-0.207-3.164-0.207-6.041v-4.781c0-2.809,0.066-4.794,0.198-5.963
		c0.131-1.167,0.546-2.234,1.242-3.201c0.697-0.966,1.636-1.708,2.823-2.227c1.185-0.518,2.566-0.777,4.143-0.777
		c1.496,0,2.837,0.244,4.03,0.733c1.19,0.489,2.148,1.224,2.873,2.201c0.725,0.979,1.157,2.044,1.295,3.194
		c0.139,1.15,0.207,3.164,0.207,6.04V27.594z M160.882,18.413c0-1.301-0.073-2.133-0.215-2.494
		c-0.144-0.363-0.441-0.544-0.889-0.544c-0.38,0-0.671,0.146-0.872,0.439c-0.201,0.295-0.301,1.159-0.301,2.599v13.048
		c0,1.621,0.066,2.621,0.198,3.002c0.131,0.381,0.44,0.57,0.923,0.57c0.495,0,0.811-0.219,0.949-0.658
		c0.139-0.436,0.208-1.477,0.208-3.123V18.413z"/>
	
		<path fill="#FFFFFF" stroke="#FFFFFF" stroke-width="5" stroke-linecap="round" stroke-linejoin="round" stroke-miterlimit="10" d="
		M176.176,33.481v5.693h-5.263v-5.693H176.176z"/>
	
		<path fill="#FFFFFF" stroke="#FFFFFF" stroke-width="5" stroke-linecap="round" stroke-linejoin="round" stroke-miterlimit="10" d="
		M191.709,11.231l4.155,27.943h-7.424l-0.389-5.021h-2.6l-0.438,5.021H177.5l3.706-27.943H191.709z M187.857,29.2
		c-0.367-3.165-0.735-7.079-1.104-11.738c-0.742,5.351-1.206,9.263-1.396,11.738H187.857z"/>
	
		<path fill="#FFFFFF" stroke="#FFFFFF" stroke-width="5" stroke-linecap="round" stroke-linejoin="round" stroke-miterlimit="10" d="
		M197.982,11.231h7.319c1.979,0,3.499,0.157,4.564,0.467c1.063,0.31,1.863,0.76,2.399,1.346c0.535,0.588,0.896,1.299,1.087,2.133
		c0.189,0.835,0.284,2.125,0.284,3.875v2.433c0,1.784-0.184,3.083-0.553,3.901c-0.367,0.817-1.044,1.445-2.027,1.881
		c-0.984,0.438-2.271,0.656-3.856,0.656h-1.951v11.252h-7.267V11.231z M205.249,16.012v7.111c0.208,0.013,0.386,0.018,0.535,0.018
		c0.668,0,1.131-0.165,1.39-0.492c0.258-0.329,0.387-1.01,0.387-2.046v-2.296c0-0.956-0.147-1.576-0.446-1.864
		C206.814,16.158,206.192,16.012,205.249,16.012z"/>
	
		<path fill="#FFFFFF" stroke="#FFFFFF" stroke-width="5" stroke-linecap="round" stroke-linejoin="round" stroke-miterlimit="10" d="
		M228.29,11.231l4.156,27.943h-7.427l-0.391-5.021h-2.599l-0.438,5.021h-7.512l3.706-27.943H228.29z M224.436,29.2
		c-0.366-3.165-0.735-7.079-1.104-11.738c-0.74,5.351-1.205,9.263-1.396,11.738H224.436z"/>
	
		<path fill="#FFFFFF" stroke="#FFFFFF" stroke-width="5" stroke-linecap="round" stroke-linejoin="round" stroke-miterlimit="10" d="
		M234.561,11.231h5.145c3.429,0,5.75,0.134,6.964,0.398c1.214,0.264,2.203,0.939,2.967,2.027c0.768,1.088,1.15,2.823,1.15,5.204
		c0,2.174-0.273,3.636-0.812,4.384c-0.543,0.749-1.606,1.196-3.192,1.347c1.438,0.355,2.403,0.833,2.898,1.431
		c0.494,0.601,0.802,1.149,0.925,1.647c0.118,0.502,0.181,1.88,0.181,4.137v7.367h-6.75V29.89c0-1.497-0.118-2.421-0.353-2.778
		c-0.235-0.357-0.856-0.536-1.855-0.536v12.599h-7.268V11.231z M241.829,16.012v6.214c0.817,0,1.388-0.114,1.718-0.337
		c0.327-0.224,0.49-0.952,0.49-2.183v-1.536c0-0.886-0.157-1.467-0.474-1.745C243.247,16.151,242.669,16.012,241.829,16.012z"/>
	
		<path fill="#FFFFFF" stroke="#FFFFFF" stroke-width="5" stroke-linecap="round" stroke-linejoin="round" stroke-miterlimit="10" d="
		M269.118,11.231v5.593h-4.315v22.35h-7.265v-22.35h-4.298v-5.593H269.118z"/>
	
		<path fill="#FFFFFF" stroke="#FFFFFF" stroke-width="5" stroke-linecap="round" stroke-linejoin="round" stroke-miterlimit="10" d="
		M294.079,11.231v27.943h-6.352l-0.008-18.864l-2.528,18.864h-4.504l-2.667-18.433l-0.009,18.433h-6.353V11.231h9.403
		c0.277,1.681,0.565,3.66,0.863,5.941l1.03,7.109l1.67-13.05H294.079z"/>
	
		<path fill="#FFFFFF" stroke="#FFFFFF" stroke-width="5" stroke-linecap="round" stroke-linejoin="round" stroke-miterlimit="10" d="
		M297.878,11.231h12.118v5.593h-4.852v5.298h4.54v5.317h-4.54v6.144h5.334v5.592h-12.601V11.231z"/>
	
		<path fill="#FFFFFF" stroke="#FFFFFF" stroke-width="5" stroke-linecap="round" stroke-linejoin="round" stroke-miterlimit="10" d="
		M329.676,11.231v27.943h-6.369l-3.78-12.703v12.703h-6.076V11.231h6.076l4.074,12.583V11.231H329.676z"/>
	
		<path fill="#FFFFFF" stroke="#FFFFFF" stroke-width="5" stroke-linecap="round" stroke-linejoin="round" stroke-miterlimit="10" d="
		M348.111,11.231v5.593h-4.314v22.35h-7.266v-22.35h-4.297v-5.593H348.111z"/>
	
		<path fill="#FFFFFF" stroke="#FFFFFF" stroke-width="5" stroke-linecap="round" stroke-linejoin="round" stroke-miterlimit="10" d="
		M366.046,19.689h-6.747v-2.07c0-0.967-0.088-1.582-0.259-1.847c-0.173-0.265-0.462-0.397-0.863-0.397
		c-0.438,0-0.769,0.179-0.991,0.536c-0.226,0.355-0.338,0.898-0.338,1.622c0,0.933,0.126,1.635,0.381,2.107
		c0.239,0.473,0.923,1.043,2.05,1.709c3.237,1.918,5.272,3.495,6.113,4.726c0.84,1.231,1.26,3.216,1.26,5.954
		c0,1.99-0.233,3.459-0.699,4.4c-0.466,0.943-1.368,1.734-2.7,2.375c-1.336,0.639-2.889,0.957-4.659,0.957
		c-1.946,0-3.606-0.369-4.98-1.105s-2.276-1.672-2.701-2.812c-0.427-1.139-0.639-2.754-0.639-4.85v-1.828h6.747v3.398
		c0,1.047,0.096,1.719,0.285,2.02c0.189,0.299,0.526,0.449,1.01,0.449c0.482,0,0.843-0.189,1.077-0.57
		c0.238-0.381,0.355-0.943,0.355-1.691c0-1.645-0.224-2.72-0.673-3.227c-0.46-0.509-1.595-1.354-3.4-2.539
		c-1.807-1.195-3.003-2.064-3.589-2.605c-0.587-0.539-1.072-1.288-1.458-2.243c-0.388-0.954-0.581-2.176-0.581-3.659
		c0-2.14,0.274-3.705,0.821-4.695c0.547-0.989,1.429-1.764,2.65-2.322c1.219-0.556,2.691-0.836,4.417-0.836
		c1.889,0,3.495,0.305,4.826,0.915c1.327,0.61,2.208,1.378,2.639,2.304c0.433,0.927,0.646,2.5,0.646,4.721V19.689z"/>
</g>
<g>
	<path fill="#F7B000" d="M20.328,19.689h-6.75v-2.07c0-0.967-0.085-1.582-0.258-1.847c-0.172-0.265-0.46-0.397-0.864-0.397
		c-0.437,0-0.767,0.179-0.991,0.536c-0.225,0.355-0.338,0.898-0.338,1.622c0,0.933,0.128,1.635,0.379,2.107
		c0.241,0.473,0.926,1.043,2.054,1.709c3.234,1.918,5.271,3.495,6.111,4.726c0.839,1.231,1.26,3.216,1.26,5.954
		c0,1.99-0.233,3.459-0.7,4.4c-0.465,0.943-1.365,1.734-2.701,2.375c-1.335,0.639-2.889,0.957-4.659,0.957
		c-1.946,0-3.605-0.369-4.98-1.105c-1.374-0.736-2.275-1.672-2.7-2.812c-0.426-1.139-0.64-2.754-0.64-4.85v-1.828h6.749v3.398
		c0,1.047,0.096,1.719,0.285,2.02c0.188,0.299,0.525,0.449,1.009,0.449s0.844-0.189,1.08-0.57c0.234-0.381,0.353-0.943,0.353-1.691
		c0-1.646-0.224-2.719-0.674-3.227c-0.459-0.509-1.594-1.354-3.4-2.539c-1.805-1.195-3.003-2.064-3.589-2.605
		c-0.586-0.539-1.073-1.288-1.458-2.243c-0.385-0.954-0.578-2.176-0.578-3.659c0-2.14,0.273-3.705,0.82-4.695
		c0.545-0.989,1.43-1.764,2.648-2.322c1.219-0.556,2.692-0.836,4.418-0.836c1.887,0,3.495,0.305,4.825,0.915
		c1.328,0.61,2.209,1.378,2.641,2.304c0.43,0.927,0.646,2.5,0.646,4.721V19.689z"/>
	<path fill="#F7B000" d="M36.654,11.231l4.155,27.943h-7.425l-0.39-5.021h-2.598l-0.438,5.021h-7.512l3.706-27.943H36.654z
		 M32.803,29.2c-0.368-3.165-0.737-7.079-1.106-11.738c-0.74,5.351-1.206,9.263-1.396,11.738H32.803z"/>
	<path fill="#F7B000" d="M59.151,11.231v27.943h-6.369l-3.779-12.703v12.703h-6.076V11.231h6.076l4.072,12.583V11.231H59.151z"/>
	<path fill="#4D85E8" d="M75.512,11.231l4.155,27.943h-7.427l-0.39-5.021h-2.598l-0.438,5.021h-7.512l3.707-27.943H75.512z
		 M71.662,29.2c-0.368-3.165-0.738-7.079-1.108-11.738c-0.739,5.351-1.204,9.263-1.395,11.738H71.662z"/>
	<path fill="#4D85E8" d="M98.009,11.231v27.943h-6.369L87.86,26.471v12.703h-6.076V11.231h6.076l4.073,12.583V11.231H98.009z"/>
	<path fill="#4D85E8" d="M118.482,21.519h-7.266v-2.538c0-1.599-0.07-2.6-0.208-3.001c-0.136-0.405-0.465-0.605-0.983-0.605
		c-0.449,0-0.755,0.173-0.914,0.517c-0.163,0.345-0.242,1.232-0.242,2.658v13.41c0,1.254,0.079,2.082,0.242,2.479
		c0.159,0.396,0.483,0.596,0.966,0.596c0.528,0,0.889-0.225,1.078-0.674c0.189-0.447,0.285-1.322,0.285-2.623v-3.313h-1.467v-4.245
		h8.509v14.996h-4.566l-0.673-2.002c-0.494,0.863-1.12,1.512-1.874,1.941c-0.753,0.434-1.643,0.648-2.667,0.648
		c-1.221,0-2.364-0.297-3.428-0.889c-1.065-0.592-1.875-1.326-2.428-2.201s-0.898-1.791-1.036-2.754
		c-0.139-0.959-0.208-2.4-0.208-4.32v-8.304c0-2.668,0.144-4.607,0.431-5.817c0.288-1.207,1.113-2.315,2.477-3.322
		c1.363-1.007,3.126-1.51,5.289-1.51c2.129,0,3.896,0.438,5.299,1.312c1.404,0.874,2.319,1.913,2.744,3.115
		c0.426,1.202,0.639,2.948,0.639,5.237V21.519z"/>
	<path fill="#4D85E8" d="M122.18,11.231h12.115v5.593h-4.849v5.298h4.539v5.317h-4.539v6.144h5.332v5.592H122.18V11.231z"/>
	<path fill="#4D85E8" d="M145.018,11.231v22.351h4.417v5.592H137.75V11.231H145.018z"/>
	<path fill="#4D85E8" d="M168.147,27.594c0,2.809-0.066,4.795-0.198,5.963c-0.132,1.168-0.547,2.234-1.242,3.201
		c-0.696,0.967-1.637,1.709-2.823,2.227c-1.184,0.518-2.565,0.777-4.141,0.777c-1.496,0-2.841-0.242-4.031-0.734
		c-1.19-0.488-2.148-1.223-2.874-2.199c-0.724-0.979-1.156-2.043-1.294-3.193c-0.137-1.15-0.207-3.164-0.207-6.041v-4.781
		c0-2.809,0.066-4.794,0.198-5.963c0.131-1.167,0.546-2.234,1.242-3.201c0.697-0.966,1.636-1.708,2.823-2.227
		c1.185-0.518,2.566-0.777,4.143-0.777c1.496,0,2.837,0.244,4.03,0.733c1.19,0.489,2.148,1.224,2.873,2.201
		c0.725,0.979,1.157,2.044,1.295,3.194c0.139,1.15,0.207,3.164,0.207,6.04V27.594z M160.882,18.413c0-1.301-0.073-2.133-0.215-2.494
		c-0.144-0.363-0.441-0.544-0.889-0.544c-0.38,0-0.671,0.146-0.872,0.439c-0.201,0.295-0.301,1.159-0.301,2.599v13.048
		c0,1.621,0.066,2.621,0.198,3.002c0.131,0.381,0.44,0.57,0.923,0.57c0.495,0,0.811-0.219,0.949-0.658
		c0.139-0.436,0.208-1.477,0.208-3.123V18.413z"/>
	<path fill="#4D85E8" d="M176.176,33.481v5.693h-5.263v-5.693H176.176z"/>
	<path fill="#F7B000" d="M191.709,11.231l4.155,27.943h-7.424l-0.389-5.021h-2.6l-0.438,5.021H177.5l3.706-27.943H191.709z
		 M187.857,29.2c-0.367-3.165-0.735-7.079-1.104-11.738c-0.742,5.351-1.206,9.263-1.396,11.738H187.857z"/>
	<path fill="#F7B000" d="M197.982,11.231h7.319c1.979,0,3.499,0.157,4.564,0.467c1.063,0.31,1.863,0.76,2.399,1.346
		c0.535,0.588,0.896,1.299,1.087,2.133c0.189,0.835,0.284,2.125,0.284,3.875v2.433c0,1.784-0.184,3.083-0.553,3.901
		c-0.367,0.817-1.044,1.445-2.027,1.881c-0.984,0.438-2.271,0.656-3.856,0.656h-1.951v11.252h-7.267V11.231z M205.249,16.012v7.111
		c0.208,0.013,0.386,0.018,0.535,0.018c0.668,0,1.131-0.165,1.39-0.492c0.258-0.329,0.387-1.01,0.387-2.046v-2.296
		c0-0.956-0.147-1.576-0.446-1.864C206.814,16.158,206.192,16.012,205.249,16.012z"/>
	<path fill="#F7B000" d="M228.29,11.231l4.156,27.943h-7.427l-0.391-5.021h-2.599l-0.438,5.021h-7.512l3.706-27.943H228.29z
		 M224.436,29.2c-0.366-3.165-0.735-7.079-1.104-11.738c-0.74,5.351-1.205,9.263-1.396,11.738H224.436z"/>
	<path fill="#F7B000" d="M234.561,11.231h5.145c3.429,0,5.75,0.134,6.964,0.398c1.214,0.264,2.203,0.939,2.967,2.027
		c0.768,1.088,1.15,2.823,1.15,5.204c0,2.174-0.273,3.636-0.812,4.384c-0.543,0.749-1.606,1.196-3.192,1.347
		c1.438,0.355,2.403,0.833,2.898,1.431c0.494,0.601,0.802,1.149,0.925,1.647c0.118,0.502,0.181,1.88,0.181,4.137v7.367h-6.75V29.89
		c0-1.497-0.118-2.421-0.353-2.778c-0.235-0.357-0.856-0.536-1.855-0.536v12.599h-7.268V11.231z M241.829,16.012v6.214
		c0.817,0,1.388-0.114,1.718-0.337c0.327-0.224,0.49-0.952,0.49-2.183v-1.536c0-0.886-0.157-1.467-0.474-1.745
		C243.247,16.151,242.669,16.012,241.829,16.012z"/>
	<path fill="#F7B000" d="M269.118,11.231v5.593h-4.315v22.35h-7.265v-22.35h-4.298v-5.593H269.118z"/>
	<path fill="#F7B000" d="M294.079,11.231v27.943h-6.352l-0.008-18.864l-2.528,18.864h-4.504l-2.667-18.433l-0.009,18.433h-6.353
		V11.231h9.403c0.277,1.681,0.565,3.66,0.863,5.941l1.03,7.109l1.67-13.05H294.079z"/>
	<path fill="#F7B000" d="M297.878,11.231h12.118v5.593h-4.852v5.298h4.54v5.317h-4.54v6.144h5.334v5.592h-12.601V11.231z"/>
	<path fill="#F7B000" d="M329.676,11.231v27.943h-6.369l-3.78-12.703v12.703h-6.076V11.231h6.076l4.074,12.583V11.231H329.676z"/>
	<path fill="#F7B000" d="M348.111,11.231v5.593h-4.314v22.35h-7.266v-22.35h-4.297v-5.593H348.111z"/>
	<path fill="#F7B000" d="M366.046,19.689h-6.747v-2.07c0-0.967-0.088-1.582-0.259-1.847c-0.173-0.265-0.462-0.397-0.863-0.397
		c-0.438,0-0.769,0.179-0.991,0.536c-0.226,0.355-0.338,0.898-0.338,1.622c0,0.933,0.126,1.635,0.381,2.107
		c0.239,0.473,0.923,1.043,2.05,1.709c3.237,1.918,5.272,3.495,6.113,4.726c0.84,1.231,1.26,3.216,1.26,5.954
		c0,1.99-0.233,3.459-0.699,4.4c-0.466,0.943-1.368,1.734-2.7,2.375c-1.336,0.639-2.889,0.957-4.659,0.957
		c-1.946,0-3.606-0.369-4.98-1.105s-2.276-1.672-2.701-2.812c-0.427-1.139-0.639-2.754-0.639-4.85v-1.828h6.747v3.398
		c0,1.047,0.096,1.719,0.285,2.02c0.189,0.299,0.526,0.449,1.01,0.449c0.482,0,0.843-0.189,1.077-0.57
		c0.238-0.381,0.355-0.943,0.355-1.691c0-1.646-0.224-2.719-0.673-3.227c-0.46-0.509-1.595-1.354-3.4-2.539
		c-1.807-1.195-3.003-2.064-3.589-2.605c-0.587-0.539-1.072-1.288-1.458-2.243c-0.388-0.954-0.581-2.176-0.581-3.659
		c0-2.14,0.274-3.705,0.821-4.695c0.547-0.989,1.429-1.764,2.65-2.322c1.219-0.556,2.691-0.836,4.417-0.836
		c1.889,0,3.495,0.305,4.826,0.915c1.327,0.61,2.208,1.378,2.639,2.304c0.433,0.927,0.646,2.5,0.646,4.721V19.689z"/>
</g>
</svg>
