<?xml version="1.0" encoding="utf-8"?>
<!-- Generator: Adobe Illustrator 15.0.2, SVG Export Plug-In . SVG Version: 6.00 Build 0)  -->
<!DOCTYPE svg PUBLIC "-//W3C//DTD SVG 1.1//EN" "http://www.w3.org/Graphics/SVG/1.1/DTD/svg11.dtd">
<svg version="1.1" id="Layer_1" xmlns="http://www.w3.org/2000/svg" xmlns:xlink="http://www.w3.org/1999/xlink" x="0px" y="0px"
	 width="368.71px" height="53.283px" viewBox="0 0 368.71 53.283" enable-background="new 0 0 368.71 53.283" xml:space="preserve">
<g>
	<path fill="#F28400" d="M22.25,19.937H15.5l0.454-2.604c0.212-1.218,0.262-1.991,0.147-2.324c-0.114-0.334-0.373-0.5-0.777-0.5
		c-0.437,0-0.806,0.225-1.109,0.675c-0.303,0.447-0.535,1.13-0.694,2.041c-0.205,1.174-0.23,2.058-0.083,2.651
		c0.138,0.595,0.698,1.312,1.679,2.151c2.813,2.414,4.504,4.398,5.074,5.948c0.569,1.549,0.555,4.048-0.045,7.492
		c-0.437,2.505-0.992,4.354-1.666,5.538c-0.671,1.188-1.745,2.184-3.222,2.989c-1.475,0.804-3.099,1.204-4.869,1.204
		c-1.946,0-3.524-0.464-4.738-1.39c-1.212-0.927-1.908-2.105-2.083-3.539c-0.176-1.434-0.036-3.467,0.424-6.104l0.401-2.301h6.749
		l-0.746,4.275c-0.229,1.317-0.28,2.164-0.158,2.543c0.123,0.376,0.426,0.565,0.911,0.565c0.484,0,0.886-0.238,1.205-0.718
		c0.318-0.479,0.56-1.186,0.724-2.127c0.361-2.072,0.373-3.424,0.034-4.062c-0.348-0.641-1.297-1.705-2.843-3.195
		c-1.543-1.503-2.551-2.597-3.019-3.278c-0.467-0.679-0.79-1.623-0.965-2.823s-0.1-2.739,0.225-4.605
		c0.47-2.694,1.086-4.663,1.85-5.909c0.762-1.244,1.817-2.22,3.158-2.923c1.341-0.699,2.875-1.052,4.601-1.052
		c1.887,0,3.428,0.385,4.625,1.153c1.194,0.767,1.907,1.733,2.135,2.899c0.227,1.167,0.098,3.146-0.39,5.941l-0.242,1.388H22.25z"/>
	<path fill="#F28400" d="M40.432,9.293l-1.975,35.166h-7.425l0.711-6.318h-2.598l-1.539,6.318h-7.512L29.93,9.293H40.432z
		 M32.639,31.907c0.326-3.983,0.815-8.909,1.468-14.773c-1.914,6.735-3.237,11.658-3.971,14.773H32.639z"/>
	<path fill="#F28400" d="M62.929,9.293l-6.13,35.166H50.43l-0.993-15.985l-2.787,15.985h-6.076l6.13-35.166h6.076l1.312,15.835
		l2.76-15.835H62.929z"/>
	<path fill="#0080F4" d="M79.29,9.293l-1.975,35.166h-7.427l0.711-6.318h-2.598l-1.539,6.318H58.95l9.837-35.166H79.29z
		 M71.498,31.907c0.326-3.983,0.814-8.909,1.467-14.773c-1.913,6.735-3.236,11.658-3.97,14.773H71.498z"/>
	<path fill="#0080F4" d="M101.787,9.293l-6.13,35.166h-6.369l-0.994-15.985l-2.786,15.985h-6.076l6.13-35.166h6.076l1.312,15.835
		l2.761-15.835H101.787z"/>
	<path fill="#0080F4" d="M120.003,22.24h-7.266l0.556-3.193c0.351-2.013,0.501-3.273,0.451-3.778
		c-0.047-0.509-0.332-0.761-0.85-0.761c-0.449,0-0.793,0.217-1.027,0.65c-0.238,0.435-0.512,1.551-0.825,3.346L108.1,35.38
		c-0.275,1.578-0.378,2.621-0.302,3.12c0.072,0.499,0.353,0.751,0.835,0.751c0.528,0,0.938-0.284,1.226-0.85
		c0.287-0.562,0.575-1.663,0.861-3.302l0.727-4.169h-1.467l0.931-5.341h8.509l-3.29,18.872h-4.566l-0.234-2.52
		c-0.683,1.086-1.452,1.903-2.299,2.443c-0.849,0.545-1.785,0.814-2.81,0.814c-1.221,0-2.299-0.374-3.233-1.118
		c-0.936-0.745-1.584-1.669-1.945-2.771c-0.361-1.102-0.505-2.254-0.432-3.466c0.071-1.207,0.318-3.021,0.74-5.438l1.821-10.45
		c0.585-3.357,1.154-5.797,1.708-7.321c0.552-1.519,1.621-2.913,3.206-4.18c1.584-1.268,3.458-1.901,5.62-1.901
		c2.129,0,3.8,0.552,5.011,1.652c1.212,1.1,1.899,2.408,2.06,3.92c0.163,1.512-0.007,3.709-0.509,6.59L120.003,22.24L120.003,22.24z
		"/>
	<path fill="#0080F4" d="M125.958,9.293h12.115l-1.227,7.039h-4.849l-1.162,6.667h4.539l-1.167,6.691h-4.539l-1.348,7.732h5.332
		l-1.226,7.037h-12.598L125.958,9.293z"/>
	<path fill="#0080F4" d="M148.796,9.293l-4.903,28.129h4.417l-1.227,7.037h-11.685l6.13-35.166H148.796z"/>
	<path fill="#0080F4" d="M168.335,29.886c-0.616,3.535-1.118,6.035-1.506,7.505c-0.389,1.471-1.037,2.812-1.944,4.028
		c-0.908,1.218-2.012,2.15-3.312,2.803c-1.297,0.651-2.735,0.979-4.311,0.979c-1.496,0-2.788-0.305-3.87-0.924
		c-1.083-0.615-1.88-1.539-2.392-2.769c-0.509-1.231-0.708-2.57-0.594-4.019c0.116-1.448,0.488-3.982,1.119-7.603l1.049-6.018
		c0.616-3.535,1.118-6.032,1.506-7.504c0.387-1.467,1.036-2.811,1.944-4.029c0.909-1.214,2.011-2.148,3.312-2.802
		c1.299-0.651,2.736-0.978,4.313-0.978c1.496,0,2.783,0.307,3.869,0.923c1.083,0.616,1.879,1.54,2.39,2.771
		c0.51,1.232,0.709,2.572,0.595,4.02c-0.113,1.446-0.487,3.982-1.118,7.6L168.335,29.886L168.335,29.886z M163.084,18.331
		c0.286-1.637,0.395-2.684,0.332-3.139c-0.064-0.458-0.321-0.685-0.77-0.685c-0.38,0-0.703,0.183-0.968,0.552
		c-0.266,0.371-0.556,1.46-0.872,3.271l-2.862,16.421c-0.355,2.04-0.509,3.299-0.46,3.778c0.048,0.479,0.315,0.718,0.798,0.718
		c0.495,0,0.859-0.276,1.093-0.828c0.235-0.55,0.533-1.859,0.894-3.931L163.084,18.331L163.084,18.331z"/>
	<path fill="#0080F4" d="M175.072,37.295l-1.249,7.164h-5.263l1.249-7.164H175.072z"/>
	<path fill="#F28400" d="M195.486,9.293l-1.975,35.166h-7.424l0.713-6.318H184.2l-1.539,6.318h-7.513l9.836-35.166H195.486z
		 M187.693,31.907c0.328-3.983,0.819-8.909,1.473-14.773c-1.918,6.735-3.24,11.658-3.973,14.773H187.693z"/>
	<path fill="#F28400" d="M201.759,9.293h7.318c1.979,0,3.467,0.197,4.463,0.587c0.994,0.39,1.697,0.956,2.104,1.694
		c0.406,0.74,0.611,1.634,0.619,2.684c0.008,1.052-0.184,2.674-0.566,4.876l-0.533,3.063c-0.392,2.244-0.859,3.879-1.408,4.909
		c-0.547,1.029-1.361,1.818-2.44,2.367c-1.081,0.552-2.413,0.826-3.999,0.826h-1.951l-2.469,14.16h-7.268l6.129-35.167H201.759z
		 M207.98,15.31l-1.561,8.949c0.203,0.016,0.381,0.023,0.531,0.023c0.668,0,1.168-0.209,1.496-0.62
		c0.33-0.416,0.607-1.271,0.836-2.576l0.504-2.889c0.209-1.204,0.199-1.983-0.037-2.347C209.511,15.493,208.921,15.31,207.98,15.31z
		"/>
	<path fill="#F28400" d="M232.068,9.293l-1.975,35.166h-7.426l0.711-6.318h-2.6l-1.539,6.318h-7.512l9.834-35.166H232.068z
		 M224.271,31.907c0.33-3.983,0.819-8.909,1.473-14.773c-1.916,6.735-3.238,11.658-3.973,14.773H224.271z"/>
	<path fill="#F28400" d="M238.337,9.293h5.146c3.428,0,5.722,0.168,6.877,0.5c1.156,0.333,1.996,1.181,2.521,2.552
		c0.528,1.369,0.531,3.553,0.009,6.549c-0.478,2.736-1.071,4.576-1.774,5.517c-0.707,0.943-1.867,1.506-3.486,1.695
		c1.359,0.447,2.22,1.048,2.584,1.801c0.363,0.756,0.549,1.445,0.562,2.072c0.01,0.633-0.23,2.366-0.727,5.207l-1.615,9.271h-6.75
		l2.037-11.684c0.328-1.883,0.413-3.047,0.255-3.495c-0.156-0.45-0.737-0.675-1.735-0.675l-2.764,15.855h-7.27L238.337,9.293z
		 M244.56,15.31l-1.363,7.819c0.816,0,1.41-0.143,1.789-0.423c0.378-0.283,0.699-1.2,0.971-2.748l0.336-1.933
		c0.195-1.115,0.166-1.846-0.092-2.196C245.947,15.485,245.4,15.31,244.56,15.31z"/>
	<path fill="#F28400" d="M272.896,9.293l-1.226,7.039h-4.316l-4.903,28.127h-7.264l4.903-28.127h-4.299l1.226-7.039H272.896z"/>
	<path fill="#F28400" d="M297.857,9.293l-6.129,35.166h-6.354l4.131-23.741l-6.666,23.741h-4.504l1.375-23.198l-4.051,23.198h-6.354
		l6.129-35.166h9.402c-0.09,2.115-0.236,4.606-0.439,7.476l-0.527,8.947l4.531-16.423H297.857z"/>
	<path fill="#F28400" d="M301.656,9.293h12.117l-1.226,7.039h-4.852l-1.162,6.667h4.539l-1.167,6.691h-4.539l-1.348,7.732h5.334
		l-1.227,7.037h-12.602l6.129-35.167H301.656z"/>
	<path fill="#F28400" d="M333.453,9.293l-6.129,35.166h-6.369l-0.994-15.985l-2.785,15.985h-6.076l6.129-35.166h6.076l1.314,15.835
		l2.76-15.835H333.453z"/>
	<path fill="#F28400" d="M351.888,9.293l-1.226,7.039h-4.314l-4.903,28.127h-7.266l4.903-28.127h-4.297l1.226-7.039H351.888z"/>
	<path fill="#F28400" d="M367.968,19.937h-6.748l0.455-2.604c0.213-1.218,0.26-1.991,0.147-2.324c-0.116-0.334-0.376-0.5-0.776-0.5
		c-0.438,0-0.809,0.225-1.109,0.675c-0.303,0.447-0.535,1.13-0.693,2.041c-0.205,1.174-0.232,2.058-0.082,2.651
		c0.137,0.595,0.695,1.312,1.676,2.151c2.816,2.414,4.505,4.398,5.076,5.948c0.57,1.549,0.555,4.048-0.045,7.492
		c-0.438,2.505-0.992,4.354-1.666,5.538c-0.672,1.188-1.748,2.184-3.221,2.989c-1.475,0.804-3.098,1.204-4.869,1.204
		c-1.945,0-3.525-0.464-4.736-1.39c-1.213-0.927-1.91-2.105-2.084-3.539c-0.178-1.434-0.035-3.467,0.426-6.104l0.4-2.301h6.746
		l-0.744,4.275c-0.231,1.317-0.283,2.164-0.159,2.543c0.124,0.376,0.427,0.565,0.911,0.565c0.482,0,0.885-0.238,1.201-0.718
		c0.322-0.479,0.562-1.186,0.727-2.127c0.36-2.072,0.374-3.424,0.037-4.062c-0.351-0.641-1.299-1.705-2.845-3.195
		c-1.544-1.503-2.552-2.597-3.019-3.278c-0.467-0.679-0.789-1.623-0.964-2.823c-0.181-1.201-0.104-2.739,0.221-4.605
		c0.47-2.694,1.087-4.663,1.853-5.909c0.762-1.244,1.814-2.22,3.156-2.923c1.344-0.699,2.876-1.052,4.603-1.052
		c1.889,0,3.427,0.385,4.625,1.153c1.192,0.767,1.904,1.733,2.133,2.899c0.23,1.167,0.099,3.146-0.39,5.941L367.968,19.937z"/>
</g>
</svg>
