<?xml version="1.0" encoding="utf-8"?>
<!-- Generator: Adobe Illustrator 15.0.2, SVG Export Plug-In . SVG Version: 6.00 Build 0)  -->
<!DOCTYPE svg PUBLIC "-//W3C//DTD SVG 1.1//EN" "http://www.w3.org/Graphics/SVG/1.1/DTD/svg11.dtd">
<svg version="1.1" id="Layer_1" xmlns="http://www.w3.org/2000/svg" xmlns:xlink="http://www.w3.org/1999/xlink" x="0px" y="0px"
	 width="75px" height="50px" viewBox="0 0 75 50" enable-background="new 0 0 75 50" xml:space="preserve">
<path fill="#FFFFFF" d="M49.67,40.031l-6.737-6.741c0.732-1.144,1.163-2.503,1.163-3.964c0-4.064-3.294-7.359-7.359-7.359
	s-7.36,3.295-7.36,7.359c0,4.066,3.295,7.361,7.36,7.361c1.461,0,2.818-0.433,3.964-1.166l6.74,6.74
	c0.203,0.204,0.538,0.204,0.744,0l1.485-1.487C49.876,40.568,49.876,40.233,49.67,40.031z M36.736,34.582
	c-2.898,0-5.258-2.356-5.258-5.257c0-2.897,2.359-5.257,5.258-5.257c2.899,0,5.257,2.359,5.257,5.257
	C41.993,32.226,39.635,34.582,36.736,34.582z"/>
<g>
	<path fill="#FFFFFF" stroke="#FFFFFF" stroke-width="0.4827" stroke-miterlimit="10" d="M19.634,13.032
		c0,1.517-1.053,2.535-2.651,2.535c-1.309,0-2.224-0.695-2.535-1.922l0.891-0.44c0.243,1.007,0.811,1.528,1.644,1.528
		c0.995,0,1.656-0.637,1.656-1.54c0-0.742-0.428-1.286-1.285-1.656l-1.007-0.428c-1.101-0.463-1.633-1.182-1.633-2.189
		c0-1.157,0.949-2.038,2.327-2.038c0.997,0,1.738,0.428,2.144,1.25l-0.811,0.521c-0.359-0.625-0.811-0.949-1.401-0.949
		c-0.742,0-1.263,0.499-1.263,1.205c0,0.59,0.359,1.007,1.111,1.331l1.181,0.521C19.091,11.225,19.634,11.99,19.634,13.032z"/>
	<path fill="#FFFFFF" stroke="#FFFFFF" stroke-width="0.4827" stroke-miterlimit="10" d="M22.105,7.081h4.365v0.904h-3.381v2.373
		h3.381v0.914h-3.381v3.173h3.381v0.914h-4.365V7.081z"/>
	<path fill="#FFFFFF" stroke="#FFFFFF" stroke-width="0.4827" stroke-miterlimit="10" d="M35.679,15.359h-1.066l-1.076-2.535h-3.23
		l-1.077,2.535h-1.065l3.752-8.603L35.679,15.359z M30.597,11.978h2.64l-1.32-3.045L30.597,11.978z"/>
	<path fill="#FFFFFF" stroke="#FFFFFF" stroke-width="0.4827" stroke-miterlimit="10" d="M37.699,7.081h1.69
		c0.093,0,0.173,0,0.255,0c0.788,0,1.39,0.023,1.9,0.417c0.474,0.371,0.774,1.03,0.774,1.841c0,1.354-0.774,2.073-2.234,2.073
		c-0.059,0-0.115,0-0.173,0l3.16,3.948h-1.251l-3.022-3.948H38.66v3.948h-0.961V7.081z M38.66,10.682h0.752
		c1.297,0,1.935-0.185,1.935-1.331c0-1.204-0.625-1.436-1.935-1.436H38.66V10.682z"/>
	<path fill="#FFFFFF" stroke="#FFFFFF" stroke-width="0.4827" stroke-miterlimit="10" d="M49.016,7.798
		c-0.867,0-1.748,0.371-2.36,1.007c-0.638,0.66-0.95,1.47-0.95,2.442c0,0.765,0.185,1.412,0.568,1.957
		c0.66,0.938,1.667,1.471,2.789,1.471c1.043,0,1.958-0.429,2.71-1.309v1.309c-0.822,0.59-1.782,0.903-2.79,0.903
		c-0.88,0-1.725-0.266-2.442-0.765c-1.205-0.834-1.865-2.084-1.865-3.554c0-1.286,0.428-2.316,1.298-3.161
		c0.845-0.81,1.864-1.215,3.079-1.215c0.984,0,1.864,0.301,2.721,0.892V9.06C50.973,8.192,50.094,7.798,49.016,7.798z"/>
	<path fill="#FFFFFF" stroke="#FFFFFF" stroke-width="0.4827" stroke-miterlimit="10" d="M54.613,7.081h0.985v3.184h4.399V7.081
		h0.996v8.278h-0.996v-4.157h-4.399v4.157h-0.985V7.081z"/>
</g>
</svg>
