<?xml version="1.0" encoding="utf-8"?>
<!-- Generator: Adobe Illustrator 15.0.2, SVG Export Plug-In . SVG Version: 6.00 Build 0)  -->
<!DOCTYPE svg PUBLIC "-//W3C//DTD SVG 1.1//EN" "http://www.w3.org/Graphics/SVG/1.1/DTD/svg11.dtd">
<svg version="1.1" id="Layer_1" xmlns="http://www.w3.org/2000/svg" xmlns:xlink="http://www.w3.org/1999/xlink" x="0px" y="0px"
	 width="75px" height="50px" viewBox="0 0 75 50" enable-background="new 0 0 75 50" xml:space="preserve">
<g>
	<path fill="#FFFFFF" stroke="#FFFFFF" stroke-width="0.5" stroke-miterlimit="10" d="M13.187,9.897l-0.818,4.42h-0.755l1.319-6.757
		l2.273,5.375l2.273-5.375l1.319,6.757h-0.755l-0.828-4.42l-2.01,4.675L13.187,9.897z"/>
	<path fill="#FFFFFF" stroke="#FFFFFF" stroke-width="0.5" stroke-miterlimit="10" d="M26.34,13.49c-0.664,0.646-1.555,1-2.464,1
		c-0.918,0-1.801-0.364-2.456-1c-0.664-0.646-1.019-1.482-1.019-2.41c0-0.928,0.355-1.773,1.019-2.419
		c0.655-0.636,1.537-0.991,2.456-0.991s1.81,0.355,2.464,0.991c0.664,0.646,1.01,1.492,1.01,2.419
		C27.35,12.007,26.995,12.853,26.34,13.49z M25.758,12.972c0.509-0.51,0.782-1.164,0.782-1.892s-0.273-1.401-0.782-1.91
		s-1.164-0.782-1.882-0.782c-0.719,0-1.382,0.273-1.883,0.782c-0.509,0.519-0.782,1.183-0.782,1.91s0.273,1.373,0.782,1.892
		c0.519,0.518,1.164,0.791,1.883,0.791C24.585,13.763,25.24,13.49,25.758,12.972z"/>
	<path fill="#FFFFFF" stroke="#FFFFFF" stroke-width="0.5" stroke-miterlimit="10" d="M33.164,12.489
		c0,1.191-0.827,1.992-2.083,1.992c-1.027,0-1.746-0.545-1.992-1.509l0.7-0.346c0.191,0.791,0.637,1.2,1.292,1.2
		c0.782,0,1.301-0.5,1.301-1.209c0-0.582-0.336-1.009-1.01-1.3l-0.791-0.336c-0.864-0.364-1.282-0.928-1.282-1.719
		c0-0.909,0.746-1.601,1.828-1.601c0.782,0,1.364,0.337,1.683,0.982l-0.637,0.409c-0.282-0.491-0.637-0.746-1.1-0.746
		c-0.582,0-0.992,0.391-0.992,0.946c0,0.464,0.282,0.791,0.873,1.046l0.928,0.409C32.737,11.071,33.164,11.671,33.164,12.489z"/>
	<path fill="#FFFFFF" stroke="#FFFFFF" stroke-width="0.5" stroke-miterlimit="10" d="M36.234,8.552h-1.837V7.815h4.447v0.737
		h-1.828v5.766h-0.782V8.552z"/>
	<path fill="#FFFFFF" stroke="#FFFFFF" stroke-width="0.5" stroke-miterlimit="10" d="M11.286,18.721h0.837l1.91,4.975l1.901-4.975
		h0.836l-2.737,6.757L11.286,18.721z"/>
	<path fill="#FFFFFF" stroke="#FFFFFF" stroke-width="0.5" stroke-miterlimit="10" d="M18.366,18.721h0.773v6.502h-0.773V18.721z"/>
	<path fill="#FFFFFF" stroke="#FFFFFF" stroke-width="0.5" stroke-miterlimit="10" d="M21.62,18.721h3.428v0.709h-2.655v1.864h2.655
		v0.718h-2.655v2.492h2.655v0.718H21.62V18.721z"/>
	<path fill="#FFFFFF" stroke="#FFFFFF" stroke-width="0.5" stroke-miterlimit="10" d="M27.254,18.721l1.646,4.784l1.719-5.038
		l1.737,5.038l1.655-4.784h0.836l-2.519,6.757l-1.701-5.029l-1.691,5.029l-2.519-6.757H27.254z"/>
	<path fill="#FFFFFF" stroke="#FFFFFF" stroke-width="0.5" stroke-miterlimit="10" d="M36.47,18.721h3.429v0.709h-2.656v1.864h2.656
		v0.718h-2.656v2.492h2.656v0.718H36.47V18.721z"/>
	<path fill="#FFFFFF" stroke="#FFFFFF" stroke-width="0.5" stroke-miterlimit="10" d="M42.113,18.721h1.246
		c1.219,0,2.155,0,2.946,0.609c0.746,0.573,1.137,1.482,1.137,2.646s-0.391,2.064-1.137,2.637c-0.755,0.582-1.609,0.609-2.665,0.609
		c-0.091,0-0.19,0-0.281,0h-1.246V18.721z M43.387,24.496c1.109,0,1.882-0.009,2.428-0.464c0.527-0.437,0.818-1.146,0.818-2.064
		s-0.281-1.609-0.818-2.055c-0.536-0.455-1.31-0.473-2.428-0.473h-0.491v5.056H43.387z"/>
</g>
<g>
	<g>
		<polyline fill="none" stroke="#FFFFFF" stroke-width="1.8842" stroke-miterlimit="10" points="14.869,43.465 24.119,32.285 
			33.648,38.063 42.142,29.619 49.548,35.742 59.857,24.01 		"/>
		<g>
			<path fill="#FFFFFF" d="M64.361,18.884c-1.225,3.198-2.327,7.532-2.34,10.808l-2.755-5.01l-5.322-2.087
				C57.191,22.161,61.348,20.51,64.361,18.884z"/>
		</g>
	</g>
</g>
</svg>
