<?xml version="1.0" encoding="utf-8"?>
<!-- Generator: Adobe Illustrator 21.0.0, SVG Export Plug-In . SVG Version: 6.00 Build 0)  -->
<svg version="1.1" id="Layer_1" xmlns="http://www.w3.org/2000/svg" xmlns:xlink="http://www.w3.org/1999/xlink" x="0px" y="0px"
	 viewBox="0 0 373 53" style="enable-background:new 0 0 373 53;" xml:space="preserve">
<style type="text/css">
	.st0{fill:#F28400;}
	.st1{fill:#0080F4;}
</style>
<g>
	<path class="st0" d="M19.7,20.6h-6.8l0.5-2.7c0.2-1.3,0.3-2.1,0.2-2.4c-0.1-0.3-0.4-0.5-0.8-0.5c-0.4,0-0.8,0.2-1.1,0.7
		c-0.3,0.5-0.6,1.2-0.7,2.1c-0.2,1.2-0.3,2.1-0.1,2.8c0.1,0.6,0.7,1.4,1.6,2.2c2.8,2.5,4.4,4.6,5,6.2c0.5,1.6,0.5,4.2-0.2,7.8
		c-0.5,2.6-1.1,4.5-1.8,5.8c-0.7,1.2-1.8,2.3-3.3,3.1c-1.5,0.8-3.1,1.3-4.9,1.3c-2,0-3.5-0.5-4.7-1.4c-1.2-1-1.9-2.2-2-3.7
		c-0.2-1.5,0-3.6,0.5-6.3L1.5,33h6.8l-0.8,4.4c-0.3,1.4-0.3,2.2-0.2,2.6c0.1,0.4,0.4,0.6,0.9,0.6c0.5,0,0.9-0.2,1.2-0.7
		c0.3-0.5,0.6-1.2,0.8-2.2c0.4-2.1,0.4-3.6,0.1-4.2c-0.3-0.7-1.3-1.8-2.8-3.3c-1.5-1.6-2.5-2.7-3-3.4C4,26,3.7,25.1,3.6,23.8
		C3.4,22.6,3.5,21,3.9,19c0.5-2.8,1.2-4.8,2-6.1c0.8-1.3,1.9-2.3,3.2-3c1.4-0.7,2.9-1.1,4.6-1.1c1.9,0,3.4,0.4,4.6,1.2
		c1.2,0.8,1.9,1.8,2.1,3c0.2,1.2,0,3.3-0.5,6.2L19.7,20.6z"/>
	<path class="st0" d="M38.1,9.5L35.5,46H28l0.8-6.6h-2.6L24.6,46H17L27.6,9.5H38.1z M29.9,33c0.4-4.1,1-9.2,1.7-15.3
		c-2,7-3.5,12.1-4.3,15.3H29.9z"/>
	<path class="st0" d="M60.7,9.5L53.9,46h-6.4l-0.7-16.6L43.7,46h-6.1l6.8-36.5h6.1l1,16.4l3.1-16.4H60.7z"/>
	<path class="st1" d="M77.2,9.5L74.6,46h-7.5l0.8-6.6h-2.6L63.7,46h-7.6L66.6,9.5H77.2z M68.9,33c0.4-4.1,1-9.2,1.7-15.3
		c-2,7-3.5,12.1-4.3,15.3H68.9z"/>
	<path class="st1" d="M99.8,9.5L93,46h-6.4l-0.7-16.6L82.8,46h-6.1l6.8-36.5h6.1l1,16.4l3.1-16.4H99.8z"/>
	<path class="st1" d="M117.9,23h-7.3l0.6-3.3c0.4-2.1,0.6-3.4,0.5-3.9c0-0.5-0.3-0.8-0.8-0.8c-0.5,0-0.8,0.2-1,0.7
		c-0.2,0.5-0.5,1.6-0.9,3.5l-3.3,17.5c-0.3,1.6-0.4,2.7-0.4,3.2s0.3,0.8,0.8,0.8c0.5,0,0.9-0.3,1.2-0.9c0.3-0.6,0.6-1.7,0.9-3.4
		l0.8-4.3h-1.5l1-5.5h8.6L113.6,46H109l-0.2-2.6c-0.7,1.1-1.5,2-2.4,2.5c-0.9,0.6-1.8,0.8-2.8,0.8c-1.2,0-2.3-0.4-3.2-1.2
		c-0.9-0.8-1.6-1.7-1.9-2.9c-0.3-1.1-0.5-2.3-0.4-3.6c0.1-1.3,0.4-3.1,0.8-5.6l2-10.8c0.6-3.5,1.3-6,1.8-7.6c0.6-1.6,1.7-3,3.3-4.3
		c1.6-1.3,3.5-2,5.7-2c2.1,0,3.8,0.6,5,1.7c1.2,1.1,1.9,2.5,2,4.1c0.1,1.6-0.1,3.9-0.6,6.8L117.9,23z"/>
	<path class="st1" d="M124.1,9.5h12.2l-1.4,7.3h-4.9l-1.3,6.9h4.6l-1.3,6.9h-4.6l-1.5,8h5.4L130,46h-12.7L124.1,9.5z"/>
	<path class="st1" d="M147.1,9.5l-5.4,29.2h4.4l-1.4,7.3H133l6.8-36.5H147.1z"/>
	<path class="st1" d="M166.3,30.9c-0.7,3.7-1.2,6.3-1.7,7.8c-0.4,1.5-1.1,2.9-2,4.2c-0.9,1.3-2.1,2.2-3.4,2.9c-1.3,0.7-2.8,1-4.4,1
		c-1.5,0-2.8-0.3-3.9-1c-1.1-0.6-1.9-1.6-2.4-2.9c-0.5-1.3-0.7-2.7-0.5-4.2c0.1-1.5,0.6-4.1,1.3-7.9l1.2-6.2
		c0.7-3.7,1.2-6.3,1.7-7.8c0.4-1.5,1.1-2.9,2-4.2c0.9-1.3,2.1-2.2,3.4-2.9c1.3-0.7,2.8-1,4.4-1c1.5,0,2.8,0.3,3.9,1
		c1.1,0.6,1.9,1.6,2.4,2.9c0.5,1.3,0.7,2.7,0.5,4.2c-0.1,1.5-0.6,4.1-1.3,7.9L166.3,30.9z M161.3,18.9c0.3-1.7,0.4-2.8,0.4-3.3
		c-0.1-0.5-0.3-0.7-0.8-0.7c-0.4,0-0.7,0.2-1,0.6c-0.3,0.4-0.6,1.5-0.9,3.4l-3.2,17c-0.4,2.1-0.6,3.4-0.5,3.9c0,0.5,0.3,0.7,0.8,0.7
		c0.5,0,0.9-0.3,1.1-0.9c0.2-0.6,0.6-1.9,1-4.1L161.3,18.9z"/>
	<path class="st1" d="M174.3,41.6c-0.6,3.1-2.9,5.4-5.2,5.4c-2.5,0-3.7-2.4-3.2-5.4c0.5-2.9,2.8-5.4,5.2-5.4
		C173.5,36.2,174.9,38.6,174.3,41.6z"/>
	<path class="st0" d="M197.8,9.5L195.2,46h-7.5l0.8-6.6H186l-1.7,6.6h-7.6l10.5-36.5H197.8z M189.6,33c0.4-4.1,1-9.2,1.7-15.3
		c-2,7-3.5,12.1-4.3,15.3H189.6z"/>
	<path class="st0" d="M204.1,9.5h7.4c2,0,3.5,0.2,4.5,0.6c1,0.4,1.7,1,2.1,1.8c0.4,0.8,0.6,1.7,0.6,2.8c0,1.1-0.2,2.8-0.7,5.1
		l-0.6,3.2c-0.4,2.3-0.9,4-1.5,5.1c-0.6,1.1-1.4,1.9-2.5,2.5c-1.1,0.6-2.4,0.9-4,0.9h-2L204.6,46h-7.3L204.1,9.5z M210.3,15.8
		l-1.7,9.3c0.2,0,0.4,0,0.5,0c0.7,0,1.2-0.2,1.5-0.6c0.3-0.4,0.6-1.3,0.9-2.7l0.6-3c0.2-1.2,0.2-2.1,0-2.4
		C211.8,16,211.2,15.8,210.3,15.8z"/>
	<path class="st0" d="M234.6,9.5L232,46h-7.5l0.8-6.6h-2.6l-1.7,6.6h-7.6L224,9.5H234.6z M226.4,33c0.4-4.1,1-9.2,1.7-15.3
		c-2,7-3.5,12.1-4.3,15.3H226.4z"/>
	<path class="st0" d="M240.9,9.5h5.2c3.4,0,5.7,0.2,6.9,0.5c1.2,0.3,2,1.2,2.5,2.6c0.5,1.4,0.5,3.7-0.1,6.8
		c-0.5,2.8-1.2,4.8-1.9,5.7c-0.7,1-1.9,1.6-3.5,1.8c1.4,0.5,2.2,1.1,2.6,1.9c0.4,0.8,0.5,1.5,0.5,2.2c0,0.7-0.3,2.5-0.8,5.4
		l-1.8,9.6h-6.8l2.3-12.1c0.4-2,0.5-3.2,0.3-3.6c-0.2-0.5-0.7-0.7-1.7-0.7L241.4,46h-7.3L240.9,9.5z M247,15.8l-1.5,8.1
		c0.8,0,1.4-0.1,1.8-0.4c0.4-0.3,0.7-1.2,1-2.9l0.4-2c0.2-1.2,0.2-1.9-0.1-2.3C248.4,16,247.9,15.8,247,15.8z"/>
	<path class="st0" d="M275.6,9.5l-1.4,7.3h-4.3L264.5,46h-7.3l5.4-29.2h-4.3l1.4-7.3H275.6z"/>
	<path class="st0" d="M300.7,9.5L293.9,46h-6.4l4.6-24.6L285,46h-4.5l1.8-24.1L277.8,46h-6.4l6.8-36.5h9.5c-0.1,2.2-0.3,4.8-0.6,7.8
		l-0.7,9.3l4.9-17H300.7z"/>
	<path class="st0" d="M304.6,9.5h12.2l-1.4,7.3h-4.9l-1.3,6.9h4.6l-1.3,6.9h-4.6l-1.5,8h5.4l-1.4,7.3h-12.7L304.6,9.5z"/>
	<path class="st0" d="M336.5,9.5L329.7,46h-6.4l-0.7-16.6L319.5,46h-6.1l6.8-36.5h6.1l1,16.4l3.1-16.4H336.5z"/>
	<path class="st0" d="M355.1,9.5l-1.4,7.3h-4.3L343.9,46h-7.3l5.4-29.2h-4.3l1.4-7.3H355.1z"/>
	<path class="st0" d="M371,20.6h-6.8l0.5-2.7c0.2-1.3,0.3-2.1,0.2-2.4c-0.1-0.3-0.4-0.5-0.8-0.5c-0.4,0-0.8,0.2-1.1,0.7
		c-0.3,0.5-0.6,1.2-0.7,2.1c-0.2,1.2-0.3,2.1-0.1,2.8c0.1,0.6,0.7,1.4,1.6,2.2c2.8,2.5,4.4,4.6,5,6.2c0.5,1.6,0.5,4.2-0.2,7.8
		c-0.5,2.6-1.1,4.5-1.8,5.8c-0.7,1.2-1.8,2.3-3.3,3.1c-1.5,0.8-3.1,1.3-4.9,1.3c-2,0-3.5-0.5-4.7-1.4c-1.2-1-1.9-2.2-2-3.7
		c-0.2-1.5,0-3.6,0.5-6.3l0.4-2.4h6.8l-0.8,4.4c-0.3,1.4-0.3,2.2-0.2,2.6c0.1,0.4,0.4,0.6,0.9,0.6c0.5,0,0.9-0.2,1.2-0.7
		c0.3-0.5,0.6-1.2,0.8-2.2c0.4-2.1,0.4-3.6,0.1-4.2c-0.3-0.7-1.3-1.8-2.8-3.3c-1.5-1.6-2.5-2.7-3-3.4c-0.5-0.7-0.8-1.7-0.9-2.9
		c-0.2-1.2-0.1-2.8,0.3-4.8c0.5-2.8,1.2-4.8,2-6.1c0.8-1.3,1.9-2.3,3.2-3c1.4-0.7,2.9-1.1,4.6-1.1c1.9,0,3.4,0.4,4.6,1.2
		c1.2,0.8,1.9,1.8,2.1,3c0.2,1.2,0,3.3-0.5,6.2L371,20.6z"/>
</g>
</svg>
